<?xml version="1.0" standalone="no"?>
<!DOCTYPE svg PUBLIC "-//W3C//DTD SVG 20010904//EN"
 "http://www.w3.org/TR/2001/REC-SVG-20010904/DTD/svg10.dtd">
<svg version="1.0" xmlns="http://www.w3.org/2000/svg"
 width="1024.000000pt" height="1024.000000pt" viewBox="0 0 1024.000000 1024.000000"
 preserveAspectRatio="xMidYMid meet">
<metadata>
Created by potrace 1.14, written by Peter Selinger 2001-2017
</metadata>
<g transform="translate(0.000000,1024.000000) scale(0.100000,-0.100000)"
fill="#000000" stroke="none">
<path d="M5791 10111 c-7 -5 -27 -7 -42 -4 -16 2 -29 0 -29 -5 0 -5 -12 -9
-27 -9 -16 0 -35 -3 -43 -6 -8 -3 -49 -15 -90 -28 -41 -12 -84 -27 -95 -33
-11 -6 -22 -11 -25 -11 -20 -3 -80 -30 -80 -37 0 -4 -16 -10 -35 -14 -19 -3
-39 -11 -43 -18 -4 -6 -33 -24 -64 -39 -32 -16 -58 -33 -58 -38 0 -6 -4 -8 -9
-4 -5 3 -16 -2 -24 -10 -9 -8 -20 -15 -26 -15 -6 0 -11 -4 -11 -10 0 -5 -15
-16 -34 -25 -19 -9 -47 -29 -62 -45 -16 -16 -33 -30 -37 -30 -17 0 -267 -244
-267 -259 0 -6 -4 -11 -8 -11 -5 0 -15 -11 -22 -25 -7 -14 -15 -23 -18 -20 -6
6 -99 -121 -119 -162 -8 -18 -18 -31 -22 -28 -4 2 -14 -11 -21 -30 -8 -19 -17
-35 -22 -35 -4 0 -7 -3 -5 -8 1 -4 -9 -21 -21 -37 l-24 -30 5 30 c3 17 13 50
22 75 9 25 18 72 19 105 1 33 4 65 7 70 9 14 -2 236 -11 245 -6 6 -30 69 -34
87 -1 7 -12 23 -24 36 -12 13 -22 28 -22 33 0 11 -36 44 -48 44 -4 0 -18 10
-32 23 -14 13 -31 22 -38 19 -6 -2 -12 1 -12 7 0 6 -7 8 -15 5 -8 -4 -15 -1
-15 5 0 6 -12 11 -27 10 -16 0 -45 4 -67 9 -21 6 -48 8 -60 6 -11 -2 -41 -7
-66 -10 -129 -17 -377 -129 -490 -221 -15 -13 -31 -23 -35 -23 -4 0 -20 -13
-35 -29 -16 -16 -42 -37 -59 -47 -17 -10 -31 -21 -31 -25 0 -4 -47 -54 -105
-112 -58 -58 -105 -109 -105 -113 0 -7 -4 -12 -53 -66 -14 -15 -23 -29 -21
-31 2 -2 -7 -14 -21 -27 -14 -13 -25 -28 -25 -35 0 -6 -9 -17 -20 -25 -10 -8
-22 -26 -25 -41 -4 -15 -13 -30 -21 -33 -9 -3 -12 -10 -9 -16 3 -5 2 -10 -4
-10 -13 0 -42 -55 -34 -64 4 -3 1 -6 -5 -6 -7 0 -12 -5 -12 -10 0 -6 -5 -16
-10 -23 -21 -25 -60 -88 -58 -95 3 -12 -25 -62 -34 -62 -4 0 -8 -8 -8 -18 0
-10 -8 -29 -17 -42 -10 -14 -17 -27 -17 -30 1 -3 -2 -15 -7 -28 -5 -13 -9 -28
-9 -33 0 -5 -5 -9 -11 -9 -5 0 -8 -4 -4 -9 3 -5 1 -13 -5 -16 -6 -4 -10 -14
-9 -23 2 -10 -8 -37 -21 -62 -12 -25 -22 -46 -21 -47 6 -12 -1 -33 -11 -27 -6
4 -8 3 -5 -3 4 -6 0 -30 -7 -54 -8 -24 -20 -64 -27 -89 -7 -25 -17 -50 -21
-57 -5 -6 -8 -17 -7 -25 3 -15 -10 -78 -19 -93 -7 -11 -12 -42 -15 -97 -1 -20
-6 -40 -10 -44 -4 -4 -7 -18 -7 -30 0 -13 -4 -25 -8 -28 -5 -3 -7 -19 -6 -35
1 -17 -1 -31 -6 -31 -4 0 -7 -32 -6 -71 0 -39 -2 -73 -5 -75 -3 -2 -6 -18 -7
-36 -1 -18 -4 -44 -8 -58 -3 -14 -6 -73 -7 -132 0 -60 -4 -108 -7 -108 -8 0
-7 -161 1 -175 14 -24 8 -72 -11 -91 -31 -31 -45 -41 -68 -48 -12 -4 -22 -12
-22 -17 0 -6 -4 -8 -9 -5 -4 3 -21 -8 -37 -24 -16 -16 -35 -30 -42 -30 -7 0
-15 -7 -18 -15 -4 -8 -10 -15 -15 -15 -17 0 -68 -43 -63 -52 3 -4 -1 -8 -8 -8
-16 0 -187 -165 -191 -183 -1 -7 -13 -22 -27 -34 -14 -13 -21 -23 -16 -23 5 0
-2 -9 -15 -21 -13 -11 -24 -25 -24 -31 0 -5 -7 -15 -16 -21 -9 -7 -17 -16 -18
-22 -4 -26 -15 -52 -33 -77 -11 -16 -17 -28 -13 -28 3 0 -2 -15 -12 -32 -9
-18 -16 -36 -15 -40 1 -5 -3 -8 -9 -8 -6 0 -9 -6 -6 -12 2 -7 -2 -31 -10 -53
-8 -22 -16 -44 -17 -50 -1 -5 -5 -15 -8 -21 -4 -6 -6 -34 -4 -62 1 -28 -3 -61
-9 -72 -7 -13 -9 -39 -5 -63 3 -23 3 -55 0 -72 -3 -16 -2 -46 3 -65 5 -19 9
-63 8 -98 l-1 -63 24 18 c13 10 21 24 18 31 -3 8 -1 17 4 21 15 11 44 68 37
74 -3 4 2 9 11 13 9 3 16 12 16 19 0 8 11 27 25 43 14 17 25 33 25 36 0 18
262 281 294 296 22 10 101 65 104 73 2 4 8 7 14 7 5 0 16 7 25 15 8 8 19 13
24 10 5 -4 9 -1 9 4 0 6 5 11 11 11 6 0 30 14 55 30 24 17 44 29 44 26 0 -3
15 3 33 14 17 11 40 20 49 20 10 0 23 9 30 19 6 10 17 17 23 14 7 -2 30 5 51
16 38 19 88 41 109 47 31 8 81 30 86 37 3 5 9 8 13 7 3 -1 19 1 34 5 34 7 53
36 45 67 -8 36 -11 102 -4 113 3 6 7 33 9 60 3 69 13 125 21 125 4 0 6 16 6
36 -1 21 7 54 20 78 12 23 21 49 19 59 -1 9 1 17 6 17 4 0 11 11 14 25 4 14
11 25 17 25 6 0 7 5 4 11 -4 5 0 18 8 27 9 9 18 29 22 44 4 15 13 29 21 32 8
3 14 13 14 21 0 10 5 13 12 9 7 -5 8 -3 3 6 -4 7 -4 15 1 19 5 3 25 26 44 51
19 25 45 53 57 63 13 10 21 23 18 28 -4 5 -1 9 5 9 13 0 45 30 33 31 -4 0 2 4
15 9 12 5 22 16 22 25 0 8 6 15 13 15 7 0 28 16 47 35 19 19 39 35 43 35 9 0
31 17 55 43 9 9 20 17 24 17 4 0 29 15 55 33 68 46 78 51 175 101 48 24 89 41
92 38 3 -3 6 0 6 6 0 7 7 12 15 12 8 0 15 5 15 11 0 5 4 8 9 4 5 -3 12 -1 16
5 3 5 15 10 25 10 10 0 26 8 36 18 10 9 19 15 21 13 4 -4 87 25 114 39 9 5 33
12 53 15 20 4 39 11 42 16 3 5 9 7 14 4 5 -3 11 -1 15 5 3 5 15 10 26 10 10 0
19 3 19 8 0 4 16 8 36 10 20 1 41 5 48 9 12 8 29 13 66 17 14 1 35 8 48 15 12
6 22 9 22 5 0 -3 6 -2 13 3 6 5 23 9 37 9 14 -1 28 3 31 7 3 5 26 11 50 13 24
3 48 9 54 13 5 4 24 8 40 10 17 2 31 7 33 11 2 5 13 5 26 0 13 -5 29 -4 41 2
10 6 32 11 49 10 17 0 36 4 42 9 7 5 25 8 41 6 15 -2 33 -1 39 4 11 9 85 19
149 21 22 0 45 5 51 9 12 10 49 7 59 -3 3 -3 -16 -16 -42 -29 -26 -13 -53 -28
-59 -33 -6 -6 -27 -20 -47 -31 -20 -11 -37 -23 -37 -28 0 -4 -4 -5 -10 -2 -5
3 -10 1 -10 -5 0 -9 -23 -22 -52 -29 -4 -1 -24 -18 -44 -37 -21 -19 -44 -34
-51 -34 -7 0 -13 -4 -13 -9 0 -5 -13 -14 -30 -21 -16 -7 -30 -17 -30 -22 0 -5
-8 -12 -17 -15 -10 -4 -27 -17 -39 -30 -12 -13 -25 -23 -30 -23 -5 0 -29 -19
-54 -41 -25 -23 -69 -64 -99 -91 -29 -27 -51 -51 -48 -54 9 -10 62 -10 75 -1
6 5 47 10 90 11 42 0 82 4 87 7 11 7 562 3 660 -4 33 -3 76 -8 95 -12 19 -4
52 -7 72 -6 20 1 39 -2 42 -7 3 -5 21 -8 41 -7 19 2 35 -1 35 -6 0 -4 18 -7
40 -6 22 2 40 -1 40 -6 0 -5 12 -7 26 -4 14 2 31 -1 38 -9 8 -7 25 -11 39 -8
14 2 29 0 32 -6 3 -5 17 -10 30 -10 13 0 27 -5 30 -10 4 -6 12 -7 23 -1 8 5
23 5 31 1 53 -26 70 -32 79 -26 6 3 13 2 17 -4 3 -5 17 -10 31 -10 13 0 24 -5
24 -11 0 -5 5 -7 11 -3 6 3 21 2 32 -4 60 -27 83 -35 95 -33 8 1 19 -2 25 -7
9 -8 73 -30 107 -37 3 0 16 -7 30 -15 14 -8 34 -15 45 -17 11 -2 24 -8 29 -13
6 -6 17 -10 26 -10 8 0 66 -25 128 -55 62 -30 113 -53 115 -53 1 1 14 -6 29
-16 15 -10 33 -19 40 -20 7 -1 31 -13 53 -27 22 -13 42 -24 45 -24 3 -1 16 -7
30 -15 14 -8 29 -14 33 -15 4 0 11 -5 15 -10 4 -6 28 -20 55 -33 26 -13 47
-28 47 -33 0 -5 4 -8 8 -7 5 2 38 -16 75 -40 36 -24 69 -43 72 -42 3 0 14 -8
24 -17 33 -30 50 -43 56 -43 4 0 21 -11 39 -25 18 -14 38 -25 44 -25 6 0 12
-4 14 -8 2 -4 35 -30 73 -57 39 -27 77 -57 86 -67 9 -10 21 -18 27 -18 6 0 16
-8 21 -17 6 -10 11 -14 11 -10 0 4 14 -7 32 -25 37 -38 54 -21 17 18 -12 13
-19 24 -14 24 4 0 -4 9 -19 21 -14 11 -26 26 -26 33 0 7 -13 23 -30 36 -16 12
-28 27 -27 34 1 6 -4 10 -10 9 -7 -2 -13 2 -13 8 0 12 -73 104 -105 131 -11
10 -17 17 -12 18 4 0 -12 19 -35 43 -24 23 -43 46 -43 52 0 5 -10 15 -23 21
-13 6 -22 13 -20 15 3 5 -64 80 -99 112 -12 11 -20 24 -17 29 3 4 -2 8 -10 8
-8 0 -24 14 -36 30 -12 17 -26 27 -32 24 -6 -4 -8 -3 -5 3 7 11 -62 80 -76 75
-5 -1 -6 2 -3 7 3 5 -5 16 -19 25 -14 9 -43 36 -66 61 -22 24 -49 47 -60 50
-10 4 -18 11 -16 17 1 5 -7 15 -17 21 -11 7 -35 27 -53 45 -19 17 -39 32 -44
32 -5 0 -9 7 -9 16 0 8 -4 13 -8 10 -4 -2 -23 11 -41 29 -28 29 -31 36 -19 48
14 14 51 36 107 62 19 9 40 23 48 31 8 8 21 14 29 14 8 0 14 5 14 11 0 5 14
15 30 20 17 6 30 14 30 18 0 4 15 15 33 26 17 10 38 24 44 29 7 6 25 20 40 31
53 39 271 265 256 265 -3 0 6 12 20 26 14 14 23 32 20 40 -3 8 0 14 6 14 11 0
33 41 35 65 1 6 10 28 22 50 17 34 20 57 18 155 -3 120 -9 160 -27 160 -6 0
-7 3 -4 6 4 4 -2 19 -13 34 -11 16 -20 31 -20 35 0 9 -109 115 -118 115 -15 0
-62 25 -62 33 0 5 -4 5 -10 2 -5 -3 -10 -1 -10 5 0 6 -6 10 -12 9 -7 -2 -33 4
-58 11 -25 7 -55 12 -67 11 -13 -1 -23 2 -23 7 0 5 -40 8 -90 8 -49 0 -90 -3
-90 -7 0 -3 -19 -6 -42 -7 -24 -1 -44 -6 -46 -11 -2 -6 -10 -7 -17 -5 -8 3
-31 0 -52 -7 -21 -7 -45 -13 -53 -14 -8 0 -26 -7 -40 -15 -14 -8 -27 -15 -30
-15 -3 0 -16 -7 -30 -15 -14 -8 -29 -14 -35 -15 -5 0 -28 -12 -50 -25 -22 -14
-42 -25 -45 -24 -3 0 -14 -8 -24 -18 -11 -10 -25 -18 -31 -18 -6 0 -24 -13
-40 -30 -16 -16 -34 -30 -42 -30 -7 0 -17 -9 -23 -20 -6 -11 -15 -20 -21 -20
-5 0 -20 -9 -32 -20 -13 -12 -23 -16 -25 -10 -2 6 6 20 19 30 12 11 19 20 15
20 -4 0 7 18 24 40 17 22 28 40 23 40 -4 0 -1 6 8 13 14 11 25 31 27 50 1 4
11 16 23 26 20 16 28 33 31 68 1 7 7 14 15 17 7 3 13 15 13 26 0 11 5 20 12
20 6 0 8 3 5 7 -4 3 0 14 8 23 8 9 16 29 17 43 1 15 6 27 9 27 8 0 31 63 35
95 4 28 28 109 34 115 8 8 6 200 -2 200 -5 0 -8 9 -8 20 0 11 -4 20 -9 20 -5
0 -8 8 -6 18 1 9 -2 23 -8 30 -5 6 -7 12 -3 12 14 0 -60 104 -107 150 -46 45
-129 96 -149 92 -5 -1 -8 2 -8 7 0 5 -19 12 -42 16 -24 4 -47 10 -53 13 -20
12 -42 14 -205 19 -93 2 -171 0 -179 -6z"/>
<path d="M4728 7293 c-54 -2 -98 -7 -98 -12 0 -4 -65 -14 -145 -21 -80 -7
-145 -17 -145 -20 0 -4 -21 -11 -47 -14 -91 -13 -228 -40 -233 -46 -3 -4 -33
-13 -67 -20 -35 -7 -63 -16 -63 -20 0 -4 -17 -11 -37 -15 -21 -4 -44 -11 -50
-17 -7 -6 -13 -7 -13 -3 0 4 -6 3 -12 -2 -7 -6 -26 -13 -43 -17 -30 -7 -69
-23 -135 -56 -19 -10 -50 -21 -67 -25 -18 -3 -33 -10 -33 -15 0 -4 -15 -14
-32 -21 -18 -6 -35 -13 -38 -14 -3 -1 -20 -8 -37 -14 -18 -7 -33 -17 -33 -23
0 -17 25 -35 58 -43 18 -3 32 -10 32 -15 0 -4 15 -11 33 -14 18 -3 49 -15 68
-25 20 -11 63 -27 95 -37 33 -9 62 -22 66 -28 4 -6 25 -11 47 -11 31 0 45 6
57 23 8 12 21 22 29 22 7 0 15 3 17 8 2 4 35 33 73 65 39 31 77 64 86 72 9 8
19 15 24 15 4 0 17 9 29 20 69 64 89 80 97 74 5 -3 9 2 9 10 0 9 7 16 15 16 8
0 15 5 15 10 0 26 55 31 214 20 89 -6 170 -15 181 -19 11 -5 63 -15 115 -21
52 -6 97 -15 100 -19 3 -4 27 -11 54 -15 28 -3 52 -10 55 -15 4 -5 32 -14 64
-21 31 -6 57 -15 57 -19 0 -4 27 -13 60 -20 33 -8 60 -17 60 -20 0 -4 20 -12
45 -19 25 -7 45 -16 45 -22 0 -5 15 -12 34 -16 19 -3 37 -12 39 -19 3 -7 18
-16 33 -19 15 -4 38 -15 51 -25 12 -11 43 -25 68 -32 25 -7 45 -17 45 -21 0
-5 11 -13 25 -18 14 -5 25 -13 25 -18 0 -4 16 -14 35 -22 19 -7 36 -19 39 -27
3 -7 11 -13 19 -13 7 0 24 -13 37 -30 14 -16 30 -29 37 -30 6 0 23 -13 36 -30
14 -16 30 -30 35 -30 5 0 32 -24 58 -53 27 -29 57 -56 67 -60 9 -3 22 -18 29
-32 6 -14 14 -25 18 -25 11 0 100 -87 100 -97 0 -5 16 -24 35 -43 19 -19 35
-38 35 -43 0 -5 14 -26 30 -47 17 -21 30 -43 30 -49 0 -6 5 -11 10 -11 6 0 10
-8 10 -18 0 -9 9 -23 20 -30 11 -7 20 -19 20 -27 0 -8 3 -15 8 -15 8 0 32 -48
32 -66 0 -6 7 -14 15 -18 8 -3 15 -12 15 -21 0 -8 5 -15 11 -15 5 0 7 -4 4
-10 -3 -5 -1 -10 4 -10 6 0 11 -7 11 -15 0 -7 6 -18 13 -22 8 -4 19 -29 27
-55 7 -27 17 -48 21 -48 5 0 9 -8 9 -17 0 -9 8 -35 18 -57 10 -23 25 -59 32
-81 7 -22 17 -43 21 -46 5 -3 10 -25 11 -50 0 -24 5 -46 9 -50 5 -3 12 -27 15
-55 3 -27 8 -56 11 -64 4 -8 5 -19 4 -24 -1 -4 3 -14 9 -21 6 -8 14 -54 17
-104 3 -50 9 -91 12 -91 3 0 4 -27 3 -61 -2 -36 1 -66 7 -72 13 -13 15 -167 3
-167 -5 0 -14 -73 -20 -162 -7 -99 -16 -164 -23 -169 -7 -4 -9 -16 -6 -28 3
-12 1 -21 -4 -21 -5 0 -9 -13 -9 -29 0 -16 -5 -42 -11 -58 -6 -15 -14 -46 -16
-68 -3 -22 -9 -41 -14 -43 -4 -2 -13 -28 -20 -58 -7 -30 -15 -54 -19 -54 -4 0
-13 -19 -20 -42 -8 -24 -17 -45 -20 -48 -11 -11 -30 -51 -30 -65 0 -8 -4 -15
-8 -15 -4 0 -21 -25 -37 -55 -17 -30 -33 -55 -37 -55 -5 0 -8 -8 -8 -18 0 -11
-9 -27 -20 -37 -11 -10 -20 -24 -20 -31 0 -8 -9 -19 -20 -26 -11 -7 -20 -18
-20 -25 0 -7 -9 -18 -20 -25 -11 -7 -20 -17 -20 -23 0 -11 -31 -53 -67 -92
-13 -13 -23 -26 -23 -29 0 -12 -165 -174 -177 -174 -8 0 -11 -4 -8 -10 3 -5 1
-10 -5 -10 -6 0 -24 -16 -41 -35 -17 -19 -35 -35 -40 -35 -10 0 -25 -12 -82
-65 -19 -18 -49 -39 -66 -46 -17 -8 -31 -17 -31 -21 0 -4 -24 -19 -52 -32 -52
-25 -108 -56 -118 -66 -9 -9 -44 -29 -120 -67 -41 -21 -76 -41 -78 -45 -2 -5
-11 -8 -20 -8 -9 0 -39 -11 -67 -24 -66 -32 -87 -40 -102 -37 -7 1 -13 -3 -13
-8 0 -6 -16 -13 -35 -17 -19 -3 -35 -10 -35 -14 0 -4 -27 -13 -60 -20 -33 -7
-60 -16 -60 -20 0 -4 -36 -13 -80 -21 -44 -7 -80 -16 -80 -20 0 -8 -134 -29
-185 -29 -18 0 -35 -4 -37 -9 -5 -16 -221 -31 -434 -31 -206 0 -465 16 -474
30 -3 4 -53 13 -112 20 -60 7 -108 16 -108 20 0 4 -36 13 -80 20 -44 7 -80 16
-80 20 0 4 -29 13 -65 20 -36 7 -65 16 -65 21 0 5 -6 9 -14 9 -8 0 -27 5 -43
11 -15 6 -30 10 -33 11 -3 0 -9 3 -15 8 -5 4 -29 11 -52 15 -24 4 -43 10 -43
14 0 4 -18 13 -40 20 -22 6 -40 15 -40 20 0 4 -18 13 -40 20 -22 6 -40 16 -40
21 0 6 -7 10 -16 10 -9 0 -27 9 -41 20 -14 11 -34 20 -44 20 -10 0 -21 5 -25
11 -3 6 -23 18 -43 26 -20 8 -48 23 -62 33 -14 10 -38 22 -53 26 -15 3 -30 12
-32 19 -3 6 -20 18 -39 25 -19 8 -35 17 -35 22 0 4 -6 8 -12 8 -7 0 -39 20
-70 45 -32 25 -62 45 -68 45 -6 0 -13 7 -16 15 -4 8 -11 15 -16 15 -6 0 -35
20 -64 45 -28 25 -54 45 -56 45 -3 0 -32 26 -66 58 -33 31 -111 104 -171 161
-61 58 -111 111 -111 118 0 7 -7 13 -15 13 -9 0 -19 8 -22 17 -4 9 -24 34 -45
55 -21 21 -38 42 -38 48 0 5 -10 20 -22 33 -40 41 -54 63 -51 73 2 6 -8 16
-22 22 -15 7 -24 16 -20 21 3 5 -8 23 -25 39 -16 17 -30 37 -30 45 0 8 -7 17
-15 21 -8 3 -15 12 -15 19 0 8 -9 22 -20 32 -11 10 -20 25 -20 33 0 8 -11 27
-25 44 -14 16 -25 36 -25 44 0 8 -4 14 -9 14 -5 0 -14 14 -20 30 -5 17 -14 30
-20 30 -5 0 -12 13 -16 29 -3 16 -15 39 -26 52 -10 12 -19 30 -19 39 0 9 -9
27 -20 40 -11 13 -20 29 -20 37 0 7 -4 13 -9 13 -6 0 -10 -62 -10 -145 -1 -80
2 -145 7 -145 4 0 6 -20 4 -45 -3 -28 0 -45 7 -45 6 0 11 -18 11 -40 0 -22 3
-40 8 -40 4 0 7 -36 8 -79 0 -47 5 -86 13 -94 6 -9 15 -47 18 -86 3 -39 10
-71 16 -71 5 0 6 -8 3 -17 -4 -9 -2 -19 4 -23 6 -4 14 -33 17 -66 3 -32 10
-61 14 -64 4 -3 14 -36 21 -73 7 -37 16 -67 19 -67 4 0 10 -16 13 -35 4 -19
10 -35 15 -35 4 0 6 -14 3 -30 -2 -17 0 -30 6 -30 6 0 13 -14 17 -30 4 -17 10
-30 14 -30 5 0 6 -11 3 -25 -2 -14 0 -25 6 -25 6 0 13 -14 17 -30 4 -17 10
-30 15 -30 4 0 10 -18 14 -39 3 -22 12 -46 19 -53 7 -7 18 -32 25 -55 7 -24
16 -43 20 -43 4 0 14 -20 21 -45 7 -25 17 -45 22 -45 5 0 9 -8 9 -18 0 -10 7
-27 15 -38 8 -10 15 -26 15 -35 0 -9 6 -22 14 -28 8 -7 18 -25 21 -41 3 -15
15 -36 26 -46 10 -9 19 -23 19 -31 0 -7 9 -22 20 -33 11 -11 20 -28 20 -38 0
-9 9 -23 20 -30 11 -7 20 -19 20 -28 0 -9 11 -27 24 -39 14 -13 23 -25 20 -28
-3 -2 9 -20 26 -38 44 -47 53 -60 69 -91 8 -15 34 -48 58 -74 23 -26 43 -50
43 -55 0 -4 18 -27 40 -49 22 -22 40 -47 40 -55 0 -8 7 -15 16 -15 9 0 18 -9
21 -20 3 -11 16 -23 30 -26 14 -4 28 -15 31 -24 9 -22 130 -150 143 -150 5 0
9 -4 9 -10 0 -5 5 -10 12 -10 6 0 23 -11 37 -24 59 -56 148 -129 173 -142 16
-8 28 -19 28 -24 0 -6 5 -10 11 -10 6 0 33 -18 59 -40 26 -22 53 -40 58 -40 6
0 15 -6 19 -12 7 -12 45 -35 100 -62 13 -6 23 -14 23 -18 0 -4 39 -27 88 -50
48 -22 89 -45 92 -49 3 -4 25 -13 50 -20 25 -7 48 -19 53 -26 4 -7 23 -15 42
-19 19 -3 35 -9 35 -13 0 -5 24 -17 70 -36 3 -1 18 -7 33 -13 16 -7 35 -12 43
-12 8 0 14 -4 14 -8 0 -4 21 -14 48 -21 26 -8 52 -17 57 -21 6 -4 32 -13 60
-19 27 -7 54 -16 60 -20 5 -5 28 -12 50 -16 22 -4 46 -11 53 -17 6 -6 12 -7
12 -3 0 4 6 3 13 -3 6 -5 33 -13 60 -17 26 -4 49 -11 52 -15 3 -4 44 -14 92
-21 49 -7 90 -16 93 -20 8 -11 295 -39 468 -46 84 -3 155 -10 158 -15 7 -12
214 -10 214 2 0 6 21 10 46 10 45 0 45 0 30 -22 -9 -12 -16 -30 -16 -40 0 -10
-5 -18 -10 -18 -6 0 -13 -8 -17 -17 -3 -10 -12 -25 -20 -33 -30 -34 -60 -76
-66 -92 -3 -10 -13 -18 -22 -18 -8 0 -15 -5 -15 -12 0 -12 -179 -188 -192
-188 -3 0 -26 -20 -50 -45 -24 -24 -48 -45 -54 -45 -7 0 -14 -7 -18 -15 -3 -8
-12 -15 -20 -15 -9 0 -20 -9 -26 -20 -6 -11 -15 -20 -21 -20 -6 0 -30 -15 -54
-32 -61 -45 -131 -88 -143 -88 -5 0 -12 -6 -15 -14 -3 -8 -19 -17 -36 -21 -25
-5 -31 -12 -31 -32 l0 -26 200 6 c110 4 208 11 217 16 10 5 90 15 178 21 88 7
162 15 165 20 3 4 41 11 85 15 44 4 84 10 90 13 5 4 22 5 37 3 16 -1 28 2 28
7 0 5 34 13 75 17 41 4 75 10 75 14 0 5 40 14 90 20 49 7 92 16 95 21 2 4 41
13 85 21 44 7 80 16 80 19 0 4 32 13 70 20 39 7 70 17 70 21 0 4 19 10 43 14
23 4 47 11 52 15 6 4 35 13 65 20 30 7 57 16 60 19 7 9 74 31 93 31 9 0 17 4
17 8 0 5 23 15 50 22 28 7 50 17 50 22 0 4 13 8 28 8 15 0 32 4 37 8 6 5 29
15 53 22 23 7 42 16 42 20 0 4 16 11 35 14 19 4 40 13 48 20 7 7 24 17 37 21
14 4 27 11 30 15 3 4 40 23 82 43 42 21 80 42 83 47 3 6 14 10 25 10 10 0 20
6 23 14 3 8 19 17 36 21 17 4 31 11 31 16 0 5 15 15 33 23 47 22 91 49 100 64
4 6 14 12 21 12 7 0 24 9 37 21 13 11 38 27 56 36 19 8 50 31 71 50 60 56 68
63 78 63 5 0 20 12 33 25 13 14 27 25 32 25 5 0 23 16 40 35 17 19 35 35 41
35 5 0 16 7 24 15 9 8 13 15 11 15 -3 0 27 30 66 68 122 116 167 162 167 170
0 4 18 26 40 47 22 21 40 45 40 52 0 7 9 17 20 23 11 6 20 17 20 25 0 7 11 22
25 33 13 11 22 22 19 25 -3 2 7 14 21 25 15 12 24 25 21 31 -3 5 5 16 19 25
14 9 25 23 25 31 0 8 4 15 10 15 5 0 12 11 16 24 3 14 14 32 25 42 10 9 19 25
19 34 0 9 9 25 20 35 11 10 20 27 20 37 0 10 6 21 14 24 8 3 18 19 21 35 4 16
11 29 16 29 6 0 8 4 5 9 -3 5 1 14 9 21 8 7 15 21 15 31 0 11 5 19 11 19 5 0
8 4 5 9 -3 5 1 14 9 21 8 7 15 19 15 26 0 7 9 28 20 46 11 18 20 43 20 56 0
12 4 22 8 22 6 0 29 50 37 80 4 15 18 49 32 77 9 18 13 39 10 47 -4 9 -2 16 3
16 5 0 11 10 15 23 3 12 10 31 14 42 11 25 38 154 46 220 4 28 11 52 15 55 5
3 13 50 19 105 7 54 16 102 22 105 6 4 15 100 21 223 6 120 15 217 20 217 4 0
8 83 8 185 0 117 -4 185 -10 185 -5 0 -10 25 -10 55 0 55 0 55 28 49 15 -4 32
-12 37 -18 6 -6 21 -17 35 -24 45 -23 73 -40 79 -49 3 -4 27 -19 54 -32 26
-13 52 -30 58 -38 6 -7 17 -13 25 -13 7 0 18 -9 24 -20 6 -11 16 -20 22 -20 6
0 25 -16 44 -35 18 -19 37 -35 42 -35 5 0 33 -25 61 -55 29 -30 56 -55 61 -55
5 0 12 -9 15 -20 3 -11 13 -20 21 -20 8 0 14 -4 14 -10 0 -5 26 -35 58 -66
l57 -57 3 78 c2 52 -1 81 -9 86 -6 4 -8 12 -5 18 4 6 4 17 -1 23 -4 7 -6 25
-4 40 1 15 -1 33 -6 40 -12 19 -32 99 -33 131 0 15 -4 27 -9 27 -5 0 -12 16
-15 35 -4 19 -10 35 -14 35 -5 0 -6 16 -4 35 3 21 0 35 -7 35 -6 0 -11 7 -11
16 0 9 -6 28 -14 42 -8 15 -20 53 -27 85 -7 31 -16 57 -21 57 -4 0 -8 11 -8
25 0 28 -20 75 -32 75 -4 0 -8 13 -8 29 0 16 -7 37 -16 45 -8 9 -12 20 -9 26
3 5 2 10 -3 10 -6 0 -13 16 -16 35 -4 19 -11 35 -16 35 -5 0 -12 17 -16 38 -3
20 -13 42 -21 48 -7 7 -17 29 -20 50 -3 22 -12 43 -19 47 -8 4 -19 28 -25 52
-6 24 -17 46 -24 49 -7 2 -15 20 -19 39 -4 19 -13 37 -20 40 -9 4 -12 14 -9
26 3 12 1 21 -6 21 -6 0 -11 6 -11 14 0 8 -6 16 -14 19 -9 3 -12 14 -9 25 3
12 -1 22 -11 25 -9 4 -16 13 -16 22 0 8 -4 15 -9 15 -5 0 -12 13 -16 29 -3 16
-12 31 -18 34 -7 2 -18 22 -26 43 -7 21 -24 49 -37 63 -13 13 -21 28 -18 33 3
4 0 8 -5 8 -6 0 -11 6 -11 13 0 7 -9 20 -20 30 -11 9 -20 24 -20 32 0 8 -7 23
-15 33 -38 42 -65 81 -65 91 0 7 -9 21 -20 33 -11 12 -20 28 -20 35 0 7 -5 13
-10 13 -6 0 -14 8 -17 17 -4 10 -17 27 -28 38 -12 11 -20 25 -18 31 2 6 -8 16
-23 22 -14 7 -24 17 -22 23 2 6 -14 29 -35 52 -22 23 -43 52 -48 65 -5 12 -15
22 -24 22 -8 0 -15 5 -15 12 0 6 -6 18 -14 27 -188 208 -364 391 -377 391 -5
0 -9 7 -9 15 0 9 -10 19 -23 24 -12 5 -42 30 -65 55 -23 25 -46 46 -51 46 -5
0 -23 14 -41 30 -18 17 -36 30 -41 30 -5 0 -14 9 -21 20 -7 11 -18 20 -24 20
-6 0 -21 11 -34 25 -13 14 -29 25 -36 25 -7 0 -18 9 -24 20 -6 11 -17 20 -26
20 -8 0 -17 7 -20 15 -4 8 -10 15 -14 15 -13 0 -90 53 -90 62 0 4 -15 14 -32
23 -31 14 -58 29 -82 48 -36 27 -137 87 -146 87 -5 0 -10 4 -10 9 0 4 -20 14
-44 21 -25 7 -47 18 -50 26 -3 8 -13 14 -22 14 -9 0 -27 9 -41 20 -14 11 -34
20 -43 20 -10 0 -23 7 -30 15 -6 8 -22 17 -33 21 -19 5 -80 32 -202 89 -16 8
-49 20 -72 27 -24 7 -43 16 -43 19 0 4 -17 10 -37 14 -21 4 -42 10 -48 15 -5
4 -30 13 -55 20 -25 6 -58 17 -75 25 -16 7 -48 17 -70 20 -22 4 -44 11 -50 15
-5 4 -71 18 -145 31 -74 12 -137 25 -140 29 -6 7 -206 30 -262 30 -20 0 -38 4
-40 10 -3 10 -447 20 -610 13z"/>
<path d="M3334 6261 c-3 -3 -24 -7 -47 -8 -84 -4 -155 -13 -180 -22 -14 -5
-28 -7 -31 -4 -3 3 -12 0 -21 -7 -8 -7 -24 -10 -35 -7 -11 3 -20 1 -20 -5 0
-6 -9 -8 -19 -5 -11 3 -28 -1 -38 -8 -10 -7 -26 -11 -35 -9 -10 1 -18 -2 -18
-6 0 -5 -9 -7 -19 -5 -11 2 -25 -3 -31 -11 -7 -7 -16 -12 -20 -9 -7 5 -75 -15
-130 -38 -14 -6 -28 -11 -32 -13 -5 -1 -10 -3 -13 -4 -3 -1 -8 -3 -12 -5 -5
-1 -21 -7 -36 -13 -16 -7 -34 -12 -42 -12 -8 0 -17 -5 -20 -10 -4 -6 -11 -8
-16 -5 -5 4 -9 2 -9 -2 0 -8 -49 -32 -78 -38 -8 -2 -21 -10 -30 -18 -10 -8
-28 -18 -42 -22 -14 -4 -36 -15 -50 -25 -14 -9 -33 -20 -43 -23 -10 -4 -16
-11 -12 -16 6 -11 54 -5 70 9 6 5 17 5 24 1 14 -9 51 -3 51 8 0 4 27 6 60 5
33 -1 60 2 60 6 0 10 260 -2 290 -13 24 -9 73 -18 95 -18 10 0 25 -5 32 -10 6
-6 17 -8 23 -4 5 3 10 1 10 -4 0 -6 9 -11 20 -11 11 0 20 -4 20 -10 0 -5 7 -7
15 -4 8 3 24 -1 37 -10 12 -9 32 -16 44 -16 12 0 24 -7 28 -15 3 -8 15 -15 26
-15 11 0 20 -4 20 -10 0 -5 11 -12 24 -16 14 -3 32 -14 42 -25 9 -10 20 -16
25 -13 4 2 13 -5 19 -16 6 -11 16 -20 23 -20 15 0 182 -164 182 -179 0 -5 10
-18 22 -29 13 -10 20 -21 18 -24 -3 -3 4 -13 15 -23 11 -10 20 -24 20 -30 0
-7 11 -29 25 -49 14 -21 23 -42 20 -47 -4 -5 1 -19 9 -31 9 -12 16 -30 16 -40
0 -10 4 -18 8 -18 4 0 6 -20 5 -45 -1 -25 1 -45 6 -45 4 0 7 -30 6 -67 -1 -38
-3 -68 -5 -68 -1 0 -4 -16 -5 -36 -1 -19 -8 -46 -16 -60 -7 -13 -12 -27 -11
-31 1 -5 -3 -8 -9 -8 -6 0 -9 -6 -6 -14 3 -7 -6 -25 -19 -39 -13 -14 -24 -29
-24 -32 0 -10 -78 -85 -88 -85 -5 0 -15 -7 -22 -15 -7 -8 -21 -15 -31 -15 -11
0 -19 -4 -19 -9 0 -9 -70 -38 -110 -45 -14 -2 -25 -5 -25 -6 0 -5 -47 -12 -98
-15 -32 -2 -64 -7 -70 -12 -7 -5 -40 -8 -74 -8 -38 1 -63 -3 -63 -10 0 -14 43
-99 55 -107 5 -4 6 -10 2 -14 -4 -4 2 -14 13 -21 11 -8 18 -19 15 -24 -4 -5 7
-26 24 -46 17 -21 31 -43 31 -50 0 -7 4 -13 9 -13 5 0 11 -6 13 -14 3 -14 192
-226 193 -216 0 2 15 -9 34 -25 18 -17 37 -29 42 -27 5 1 9 -4 9 -12 0 -8 9
-18 20 -21 11 -3 20 -11 20 -16 0 -5 4 -9 9 -9 5 0 32 -15 60 -34 28 -19 67
-40 86 -47 19 -7 35 -16 35 -20 0 -8 60 -33 73 -30 4 0 7 -3 7 -9 0 -6 3 -9 8
-8 4 1 22 -6 40 -15 17 -10 32 -15 32 -11 0 4 7 1 15 -6 8 -7 15 -10 15 -7 0
4 20 -2 45 -13 25 -11 45 -17 45 -13 0 3 6 0 14 -6 8 -7 20 -11 28 -10 7 1 20
0 28 -4 23 -8 73 -18 95 -18 10 0 24 -4 30 -9 5 -4 34 -7 62 -6 29 1 54 -2 56
-7 3 -10 109 -13 125 -3 6 3 13 2 17 -3 3 -7 15 -7 30 -1 13 5 26 6 29 2 3 -6
71 -8 71 -2 0 5 86 17 158 23 15 1 27 5 27 8 0 4 19 9 42 13 23 4 48 12 55 18
7 6 13 7 13 3 0 -4 7 -2 15 5 8 6 18 9 24 6 5 -4 16 0 24 8 8 8 17 12 21 9 3
-4 6 -1 6 5 0 7 3 11 8 10 12 -4 72 24 72 33 0 5 3 8 8 7 4 -1 33 16 66 37 32
22 67 45 78 51 11 6 19 14 19 18 -2 19 0 26 9 26 12 0 59 50 60 64 0 5 9 17
21 27 11 10 22 24 23 32 1 8 7 21 12 28 16 20 33 76 27 83 -4 3 -1 6 6 6 8 0
11 8 8 20 -3 11 -1 20 4 20 5 0 9 9 9 19 0 11 3 22 8 24 17 11 0 317 -18 317
-5 0 -6 9 -3 20 3 11 0 20 -5 20 -7 0 -10 15 -8 35 1 19 -1 35 -6 35 -4 0 -8
9 -8 19 0 10 -7 21 -15 24 -8 4 -12 15 -10 26 2 12 -2 26 -8 33 -7 7 -23 36
-37 63 -14 28 -29 53 -34 56 -5 4 -6 12 -2 18 4 5 -2 19 -13 30 -11 11 -27 33
-36 48 -9 15 -27 48 -41 73 -14 25 -36 56 -49 70 -14 15 -25 30 -25 34 0 5
-11 19 -25 32 -14 13 -25 30 -25 39 0 8 -7 15 -15 15 -8 0 -15 6 -15 14 0 9
12 14 34 14 19 0 39 2 44 5 4 4 19 1 33 -6 13 -7 40 -12 59 -11 19 0 40 -2 45
-6 6 -4 22 -7 38 -6 15 1 27 -1 27 -5 0 -4 9 -9 20 -12 11 -3 20 -1 20 4 0 5
12 3 28 -4 15 -8 33 -12 40 -10 6 3 12 1 12 -4 0 -5 10 -9 22 -10 11 -1 24 -6
27 -10 3 -4 17 -9 31 -11 14 -1 34 -6 45 -11 18 -9 93 -34 105 -36 3 0 15 -6
26 -13 33 -18 37 -2 9 34 -14 18 -25 36 -25 40 0 4 -6 14 -14 23 -8 9 -32 36
-54 61 -22 25 -60 68 -84 95 -25 28 -48 58 -51 68 -4 10 -11 15 -17 12 -6 -3
-13 2 -17 12 -9 22 -53 68 -68 68 -5 1 -9 6 -7 13 1 7 -4 12 -11 12 -8 0 -32
19 -55 43 -45 46 -48 49 -107 92 -22 17 -41 33 -43 38 -2 4 -10 7 -18 7 -7 0
-19 9 -26 20 -7 11 -18 20 -24 20 -6 0 -19 9 -29 20 -10 11 -24 20 -32 20 -7
0 -16 7 -19 15 -4 8 -10 13 -14 10 -4 -3 -13 2 -20 10 -7 8 -19 15 -27 15 -7
0 -19 5 -26 11 -20 17 -81 53 -96 55 -8 2 -17 7 -20 12 -3 5 -25 17 -48 27
-24 11 -43 23 -43 28 0 4 -5 5 -10 2 -6 -4 -40 8 -77 25 -37 18 -74 34 -83 35
-8 2 -53 17 -100 34 -46 16 -88 27 -92 25 -5 -3 -8 0 -8 6 0 7 -6 10 -12 7 -7
-2 -24 0 -38 6 -23 9 -48 14 -90 18 -8 1 -20 6 -26 11 -7 5 -24 7 -38 4 -14
-3 -26 0 -26 6 0 6 -9 8 -20 5 -11 -3 -22 -1 -25 4 -3 4 -12 6 -20 2 -9 -3
-21 -1 -28 4 -6 5 -32 8 -57 7 -25 -2 -52 0 -60 4 -18 8 -448 10 -456 3z"/>
</g>
</svg>
